<svg width="54" height="76" viewBox="0 0 54 76" fill="none" xmlns="http://www.w3.org/2000/svg">
<path d="M15.75 71.75C15.75 73.8125 17.4375 75.5 19.5 75.5H34.5C36.5625 75.5 38.25 73.8125 38.25 71.75V68H15.75V71.75ZM27 0.5C12.525 0.5 0.75 12.275 0.75 26.75C0.75 35.675 5.2125 43.5125 12 48.275V56.75C12 58.8125 13.6875 60.5 15.75 60.5H38.25C40.3125 60.5 42 58.8125 42 56.75V48.275C48.7875 43.5125 53.25 35.675 53.25 26.75C53.25 12.275 41.475 0.5 27 0.5ZM37.6875 42.125L34.5 44.375V53H19.5V44.375L16.3125 42.125C11.25 38.6 8.25 32.8625 8.25 26.75C8.25 16.4 16.65 8 27 8C37.35 8 45.75 16.4 45.75 26.75C45.75 32.8625 42.75 38.6 37.6875 42.125Z" fill="#F2F2F2"/>
</svg>
