<svg width="36" height="36" viewBox="0 0 36 36" fill="none" xmlns="http://www.w3.org/2000/svg">
<path d="M22.1592 4.58333L31.4167 13.8408V31.4167H4.58333V4.58333H22.1592ZM22.1592 0.75H4.58333C2.475 0.75 0.75 2.475 0.75 4.58333V31.4167C0.75 33.525 2.475 35.25 4.58333 35.25H31.4167C33.525 35.25 35.25 33.525 35.25 31.4167V13.8408C35.25 12.825 34.8475 11.8475 34.1192 11.1383L24.8617 1.88083C24.1525 1.1525 23.175 0.75 22.1592 0.75ZM8.41667 23.75H27.5833V27.5833H8.41667V23.75ZM8.41667 16.0833H27.5833V19.9167H8.41667V16.0833ZM8.41667 8.41667H21.8333V12.25H8.41667V8.41667Z" fill="#464F6D"/>
</svg>
