<svg width="83" height="57" viewBox="0 0 83 57" fill="none" xmlns="http://www.w3.org/2000/svg">
<path d="M41.4999 8.10417C55.5545 8.10417 68.0887 16.0029 74.2074 28.5C68.0887 40.9971 55.5916 48.8958 41.4999 48.8958C27.4082 48.8958 14.9112 40.9971 8.79242 28.5C14.9112 16.0029 27.4453 8.10417 41.4999 8.10417ZM41.4999 0.6875C22.9583 0.6875 7.12367 12.2204 0.708252 28.5C7.12367 44.7796 22.9583 56.3125 41.4999 56.3125C60.0416 56.3125 75.8762 44.7796 82.2916 28.5C75.8762 12.2204 60.0416 0.6875 41.4999 0.6875ZM41.4999 19.2292C46.6174 19.2292 50.7707 23.3825 50.7707 28.5C50.7707 33.6175 46.6174 37.7708 41.4999 37.7708C36.3824 37.7708 32.2291 33.6175 32.2291 28.5C32.2291 23.3825 36.3824 19.2292 41.4999 19.2292ZM41.4999 11.8125C32.3032 11.8125 24.8124 19.3033 24.8124 28.5C24.8124 37.6967 32.3032 45.1875 41.4999 45.1875C50.6966 45.1875 58.1874 37.6967 58.1874 28.5C58.1874 19.3033 50.6966 11.8125 41.4999 11.8125Z" fill="#F2F2F2"/>
</svg>
