<svg width="10" height="10" viewBox="0 0 10 10" fill="#4e5674" xmlns="http://www.w3.org/2000/svg">
<path d="M5.00016 0.375C4.26683 0.375 3.66683 0.9375 3.66683 1.625C3.66683 2.3125 4.26683 2.875 5.00016 2.875C5.35378 2.875 5.69292 2.7433 5.94297 2.50888C6.19302 2.27446 6.3335 1.95652 6.3335 1.625C6.3335 1.29348 6.19302 0.975537 5.94297 0.741116C5.69292 0.506696 5.35378 0.375 5.00016 0.375ZM0.333496 8.5H9.66683V9.75H0.333496V8.5Z" fill="#464F6D"/>
<path d="M5.00016 1.5C6.28683 1.5 8.3335 2.375 8.3335 4.71875C8.3335 6.06875 7.18683 7.6375 5.00016 9.29375C2.8135 7.6375 1.66683 6.0625 1.66683 4.71875C1.66683 2.375 3.7135 1.5 5.00016 1.5ZM5.00016 0.25C2.82016 0.25 0.333496 1.7875 0.333496 4.71875C0.333496 6.66875 1.88683 8.725 5.00016 10.875C8.1135 8.725 9.66683 6.66875 9.66683 4.71875C9.66683 1.7875 7.18016 0.25 5.00016 0.25Z" fill="#4E5674"/>
</svg>
