<svg width="46" height="46" viewBox="0 0 46 46" fill="none" xmlns="http://www.w3.org/2000/svg">
<path d="M39.2917 5.75L38.985 5.8075L28.75 9.775L17.25 5.75L6.44 9.39167C6.0375 9.52583 5.75 9.87083 5.75 10.3117V39.2917C5.75 39.8283 6.17167 40.25 6.70833 40.25L7.015 40.1925L17.25 36.225L28.75 40.25L39.56 36.6083C39.9625 36.4742 40.25 36.1292 40.25 35.6883V6.70833C40.25 6.17167 39.8283 5.75 39.2917 5.75ZM19.1667 10.4842L26.8333 13.1675V35.5158L19.1667 32.8325V10.4842ZM9.58333 12.3817L15.3333 10.4458V32.8708L9.58333 35.0942V12.3817ZM36.4167 33.6183L30.6667 35.5542V13.1483L36.4167 10.925V33.6183Z" fill="#464F6D"/>
</svg>
