<svg width="75" height="75" viewBox="0 0 75 75" fill="none" xmlns="http://www.w3.org/2000/svg">
<path d="M63.718 11.2822L58.4893 16.5109C63.8293 21.888 67.1667 29.3047 67.1667 37.5001C67.1667 53.8909 53.8909 67.1667 37.5001 67.1667C21.1092 67.1667 7.83342 53.8909 7.83342 37.5001C7.83342 22.3701 19.1438 9.91008 33.7917 8.093V15.5838C23.2601 17.3638 15.2501 26.4863 15.2501 37.5001C15.2501 49.7747 25.2255 59.7501 37.5001 59.7501C49.7747 59.7501 59.7501 49.7747 59.7501 37.5001C59.7501 31.3442 57.2655 25.7817 53.2234 21.7768L47.9947 27.0055C50.6647 29.7126 52.3334 33.4209 52.3334 37.5001C52.3334 45.6955 45.6955 52.3334 37.5001 52.3334C29.3047 52.3334 22.6667 45.6955 22.6667 37.5001C22.6667 30.6026 27.4134 24.8547 33.7917 23.1859V31.1217C31.5667 32.4197 30.0834 34.7559 30.0834 37.5001C30.0834 41.5793 33.4209 44.9167 37.5001 44.9167C41.5793 44.9167 44.9167 41.5793 44.9167 37.5001C44.9167 34.7559 43.4334 32.3826 41.2084 31.1217V0.416748H37.5001C17.0301 0.416748 0.416748 17.0301 0.416748 37.5001C0.416748 57.9701 17.0301 74.5834 37.5001 74.5834C57.9701 74.5834 74.5834 57.9701 74.5834 37.5001C74.5834 27.2651 70.4301 17.9942 63.718 11.2822Z" fill="#F2F2F2"/>
</svg>
