<svg width="12" height="13" viewBox="0 0 12 13" fill="none" xmlns="http://www.w3.org/2000/svg">
<path d="M7.44667 2.125L10.6667 5.14375V10.875H1.33333V2.125H7.44667ZM7.44667 0.875H1.33333C0.6 0.875 0 1.4375 0 2.125V10.875C0 11.5625 0.6 12.125 1.33333 12.125H10.6667C11.4 12.125 12 11.5625 12 10.875V5.14375C12 4.8125 11.86 4.49375 11.6067 4.2625L8.38667 1.24375C8.14 1.00625 7.8 0.875 7.44667 0.875ZM2.66667 8.375H9.33333V9.625H2.66667V8.375ZM2.66667 5.875H9.33333V7.125H2.66667V5.875ZM2.66667 3.375H7.33333V4.625H2.66667V3.375Z" fill="#4E5674"/>
</svg>
