<svg width="12" height="14" viewBox="0 0 12 14" fill="none" xmlns="http://www.w3.org/2000/svg">
<path d="M5.99984 10.625C6.73317 10.625 7.33317 10.0625 7.33317 9.375C7.33317 8.6875 6.73317 8.125 5.99984 8.125C5.2665 8.125 4.6665 8.6875 4.6665 9.375C4.6665 10.0625 5.2665 10.625 5.99984 10.625ZM9.99984 5H9.33317V3.75C9.33317 2.025 7.83984 0.625 5.99984 0.625C4.15984 0.625 2.6665 2.025 2.6665 3.75H3.93317C3.93317 2.68125 4.85984 1.8125 5.99984 1.8125C7.13984 1.8125 8.0665 2.68125 8.0665 3.75V5H1.99984C1.2665 5 0.666504 5.5625 0.666504 6.25V12.5C0.666504 13.1875 1.2665 13.75 1.99984 13.75H9.99984C10.7332 13.75 11.3332 13.1875 11.3332 12.5V6.25C11.3332 5.5625 10.7332 5 9.99984 5ZM9.99984 12.5H1.99984V6.25H9.99984V12.5Z" fill="#4E5674"/>
</svg>
