<svg width="26" height="44" viewBox="0 0 26 44" fill="none" xmlns="http://www.w3.org/2000/svg">
<path d="M20.7085 0.916748H5.37516C2.73016 0.916748 0.583496 3.06341 0.583496 5.70841V38.2917C0.583496 40.9367 2.73016 43.0834 5.37516 43.0834H20.7085C23.3535 43.0834 25.5002 40.9367 25.5002 38.2917V5.70841C25.5002 3.06341 23.3535 0.916748 20.7085 0.916748ZM13.0418 41.1667C11.451 41.1667 10.1668 39.8826 10.1668 38.2917C10.1668 36.7009 11.451 35.4167 13.0418 35.4167C14.6327 35.4167 15.9168 36.7009 15.9168 38.2917C15.9168 39.8826 14.6327 41.1667 13.0418 41.1667ZM21.6668 33.5001H4.41683V6.66675H21.6668V33.5001Z" fill="#464F6D"/>
</svg>
