<svg width="46" height="46" viewBox="0 0 46 46" fill="none" xmlns="http://www.w3.org/2000/svg">
<path d="M23.0002 7.66659C26.6993 7.66659 32.5835 10.3499 32.5835 17.5374C32.5835 21.6774 29.2868 26.4883 23.0002 31.5674C16.7135 26.4883 13.4168 21.6583 13.4168 17.5374C13.4168 10.3499 19.301 7.66659 23.0002 7.66659ZM23.0002 3.83325C16.7327 3.83325 9.5835 8.54825 9.5835 17.5374C9.5835 23.5174 14.0493 29.8233 23.0002 36.4166C31.951 29.8233 36.4168 23.5174 36.4168 17.5374C36.4168 8.54825 29.2677 3.83325 23.0002 3.83325Z" fill="#464F6D"/>
<path d="M23.0002 13.4167C20.8918 13.4167 19.1668 15.1417 19.1668 17.2501C19.1668 19.3584 20.8918 21.0834 23.0002 21.0834C24.0168 21.0834 24.9918 20.6795 25.7107 19.9607C26.4296 19.2418 26.8335 18.2667 26.8335 17.2501C26.833 16.2334 26.4296 15.2584 25.7107 14.5395C24.9918 13.8206 24.0168 13.4167 23.0002 13.4167ZM9.5835 38.3334H36.4168V42.1667H9.5835V38.3334Z" fill="#464F6D"/>
</svg>
