<svg width="40" height="40" viewBox="0 0 40 40" fill="none" xmlns="http://www.w3.org/2000/svg">
<path d="M19.9999 0.833252C9.41992 0.833252 0.833252 9.41992 0.833252 19.9999C0.833252 30.5799 9.41992 39.1666 19.9999 39.1666C30.5799 39.1666 39.1666 30.5799 39.1666 19.9999C39.1666 9.41992 30.5799 0.833252 19.9999 0.833252ZM19.9999 35.3333C11.5474 35.3333 4.66659 28.4524 4.66659 19.9999C4.66659 11.5474 11.5474 4.66659 19.9999 4.66659C28.4524 4.66659 35.3333 11.5474 35.3333 19.9999C35.3333 28.4524 28.4524 35.3333 19.9999 35.3333ZM20.5941 18.3516C17.2016 17.4891 16.1091 16.5499 16.1091 15.1508C16.1091 13.5408 17.6233 12.4099 20.1341 12.4099C22.7791 12.4099 23.7758 13.6749 23.8524 15.5533H27.1299C27.0341 12.9849 25.4624 10.6274 22.3574 9.86075V6.58325H17.8916V9.82242C14.9974 10.4358 12.6783 12.3141 12.6783 15.2083C12.6783 18.6391 15.5341 20.3641 19.6933 21.3608C23.4308 22.2424 24.1783 23.5649 24.1783 24.9449C24.1783 25.9608 23.4308 27.6091 20.1533 27.6091C17.0866 27.6091 15.8791 26.2291 15.7066 24.4658H12.4099C12.6016 27.7241 15.0166 29.5641 17.8916 30.1583V33.4166H22.3766V30.2158C25.2899 29.6599 27.5899 27.9924 27.6091 24.9066C27.5899 20.6899 23.9674 19.2333 20.5941 18.3516Z" fill="#464F6D"/>
</svg>
