<svg width="44" height="28" viewBox="0 0 44 28" fill="none" xmlns="http://www.w3.org/2000/svg">
<path d="M30.6251 15.9166C28.3251 15.9166 24.7409 16.5683 22.0001 17.8333C19.2592 16.5491 15.6751 15.9166 13.3751 15.9166C9.21591 15.9166 0.916748 17.9866 0.916748 22.1458V27.4166H43.0834V22.1458C43.0834 17.9866 34.7842 15.9166 30.6251 15.9166ZM22.9584 24.5416H3.79175V22.1458C3.79175 21.1108 8.69841 18.7916 13.3751 18.7916C18.0517 18.7916 22.9584 21.1108 22.9584 22.1458V24.5416ZM40.2084 24.5416H25.8334V22.1458C25.8334 21.2641 25.4501 20.4974 24.8367 19.8074C26.5234 19.2324 28.5934 18.7916 30.6251 18.7916C35.3017 18.7916 40.2084 21.1108 40.2084 22.1458V24.5416ZM13.3751 13.9999C17.0742 13.9999 20.0834 10.9908 20.0834 7.29159C20.0834 3.59242 17.0742 0.583252 13.3751 0.583252C9.67591 0.583252 6.66675 3.59242 6.66675 7.29159C6.66675 10.9908 9.67591 13.9999 13.3751 13.9999ZM13.3751 3.45825C15.4834 3.45825 17.2084 5.18325 17.2084 7.29159C17.2084 9.39992 15.4834 11.1249 13.3751 11.1249C11.2667 11.1249 9.54175 9.39992 9.54175 7.29159C9.54175 5.18325 11.2667 3.45825 13.3751 3.45825ZM30.6251 13.9999C34.3242 13.9999 37.3334 10.9908 37.3334 7.29159C37.3334 3.59242 34.3242 0.583252 30.6251 0.583252C26.9259 0.583252 23.9167 3.59242 23.9167 7.29159C23.9167 10.9908 26.9259 13.9999 30.6251 13.9999ZM30.6251 3.45825C32.7334 3.45825 34.4584 5.18325 34.4584 7.29159C34.4584 9.39992 32.7334 11.1249 30.6251 11.1249C28.5167 11.1249 26.7917 9.39992 26.7917 7.29159C26.7917 5.18325 28.5167 3.45825 30.6251 3.45825Z" fill="#464F6D"/>
</svg>
