<svg width="13" height="13" viewBox="0 0 13 13" fill="none" xmlns="http://www.w3.org/2000/svg">
<path d="M12 3.55V2.125C12 1.4375 11.4 0.875 10.6667 0.875H1.33333C0.593333 0.875 0 1.4375 0 2.125V10.875C0 11.5625 0.593333 12.125 1.33333 12.125H10.6667C11.4 12.125 12 11.5625 12 10.875V9.45C12.3933 9.23125 12.6667 8.8375 12.6667 8.375V4.625C12.6667 4.1625 12.3933 3.76875 12 3.55ZM11.3333 4.625V8.375H6.66667V4.625H11.3333ZM1.33333 10.875V2.125H10.6667V3.375H6.66667C5.93333 3.375 5.33333 3.9375 5.33333 4.625V8.375C5.33333 9.0625 5.93333 9.625 6.66667 9.625H10.6667V10.875H1.33333Z" fill="#4E5674"/>
</svg>
