<svg width="46" height="46" viewBox="0 0 46 46" fill="none" xmlns="http://www.w3.org/2000/svg">
<path d="M27.1592 9.58333L36.4167 18.8408V36.4167H9.58333V9.58333H27.1592ZM27.1592 5.75H9.58333C7.475 5.75 5.75 7.475 5.75 9.58333V36.4167C5.75 38.525 7.475 40.25 9.58333 40.25H36.4167C38.525 40.25 40.25 38.525 40.25 36.4167V18.8408C40.25 17.825 39.8475 16.8475 39.1192 16.1383L29.8617 6.88083C29.1525 6.1525 28.175 5.75 27.1592 5.75ZM13.4167 28.75H32.5833V32.5833H13.4167V28.75ZM13.4167 21.0833H32.5833V24.9167H13.4167V21.0833ZM13.4167 13.4167H26.8333V17.25H13.4167V13.4167Z" fill="#464F6D"/>
</svg>
