<svg width="40" height="40" viewBox="0 0 40 40" fill="none" xmlns="http://www.w3.org/2000/svg">
<path d="M20.0002 0.833252C9.42016 0.833252 0.833496 9.41992 0.833496 19.9999C0.833496 30.5799 9.42016 39.1666 20.0002 39.1666C30.5802 39.1666 39.1668 30.5799 39.1668 19.9999C39.1668 9.41992 30.5802 0.833252 20.0002 0.833252ZM10.551 32.0366C11.3752 30.3116 16.3968 28.6249 20.0002 28.6249C23.6035 28.6249 28.6443 30.3116 29.4493 32.0366C26.8427 34.1066 23.5652 35.3333 20.0002 35.3333C16.4352 35.3333 13.1577 34.1066 10.551 32.0366ZM32.1902 29.2574C29.4493 25.9224 22.7985 24.7916 20.0002 24.7916C17.2018 24.7916 10.551 25.9224 7.81016 29.2574C5.85516 26.6891 4.66683 23.4883 4.66683 19.9999C4.66683 11.5474 11.5477 4.66659 20.0002 4.66659C28.4527 4.66659 35.3335 11.5474 35.3335 19.9999C35.3335 23.4883 34.1452 26.6891 32.1902 29.2574ZM20.0002 8.49992C16.2818 8.49992 13.2918 11.4899 13.2918 15.2083C13.2918 18.9266 16.2818 21.9166 20.0002 21.9166C23.7185 21.9166 26.7085 18.9266 26.7085 15.2083C26.7085 11.4899 23.7185 8.49992 20.0002 8.49992ZM20.0002 18.0833C18.4093 18.0833 17.1252 16.7991 17.1252 15.2083C17.1252 13.6174 18.4093 12.3333 20.0002 12.3333C21.591 12.3333 22.8752 13.6174 22.8752 15.2083C22.8752 16.7991 21.591 18.0833 20.0002 18.0833Z" fill="#464F6D"/>
</svg>
