<svg width="14" height="13" viewBox="0 0 14 13" fill="none" xmlns="http://www.w3.org/2000/svg">
<path d="M6.99301 0.25C3.31301 0.25 0.333008 3.05 0.333008 6.5C0.333008 9.95 3.31301 12.75 6.99301 12.75C10.6797 12.75 13.6663 9.95 13.6663 6.5C13.6663 3.05 10.6797 0.25 6.99301 0.25ZM11.613 4H9.64634C9.43301 3.21875 9.12634 2.46875 8.72634 1.775C9.95301 2.16875 10.973 2.96875 11.613 4ZM6.99967 1.525C7.55301 2.275 7.98634 3.10625 8.27301 4H5.72634C6.01301 3.10625 6.44634 2.275 6.99967 1.525ZM1.83967 7.75C1.73301 7.35 1.66634 6.93125 1.66634 6.5C1.66634 6.06875 1.73301 5.65 1.83967 5.25H4.09301C4.03967 5.6625 3.99967 6.075 3.99967 6.5C3.99967 6.925 4.03967 7.3375 4.09301 7.75H1.83967ZM2.38634 9H4.35301C4.56634 9.78125 4.87301 10.5313 5.27301 11.225C4.04634 10.8313 3.02634 10.0375 2.38634 9ZM4.35301 4H2.38634C3.02634 2.9625 4.04634 2.16875 5.27301 1.775C4.87301 2.46875 4.56634 3.21875 4.35301 4ZM6.99967 11.475C6.44634 10.725 6.01301 9.89375 5.72634 9H8.27301C7.98634 9.89375 7.55301 10.725 6.99967 11.475ZM8.55967 7.75H5.43967C5.37967 7.3375 5.33301 6.925 5.33301 6.5C5.33301 6.075 5.37967 5.65625 5.43967 5.25H8.55967C8.61967 5.65625 8.66634 6.075 8.66634 6.5C8.66634 6.925 8.61967 7.3375 8.55967 7.75ZM8.72634 11.225C9.12634 10.5313 9.43301 9.78125 9.64634 9H11.613C10.973 10.0313 9.95301 10.8313 8.72634 11.225ZM9.90634 7.75C9.95967 7.3375 9.99967 6.925 9.99967 6.5C9.99967 6.075 9.95967 5.6625 9.90634 5.25H12.1597C12.2663 5.65 12.333 6.06875 12.333 6.5C12.333 6.93125 12.2663 7.35 12.1597 7.75H9.90634Z" fill="#4E5674"/>
</svg>
